<svg width="512" height="512" viewBox="0 0 512 512" fill="none" xmlns="http://www.w3.org/2000/svg">
<path d="M448 43.2214H384V0.554688H341.333V43.2214H170.667V0.554688H128V43.2214H64C28.7147 43.2214 0 71.936 0 107.221V512.555H512V107.221C512 71.936 483.285 43.2214 448 43.2214ZM64 85.888H448C459.755 85.888 469.333 95.4667 469.333 107.221V171.221H42.6667V107.221C42.6667 95.4667 52.2453 85.888 64 85.888ZM42.6667 469.888V213.888H469.333V469.888H42.6667ZM358.827 327.616L307.477 365.653L327.04 425.792L308.203 438.656L256.192 403.392L203.733 438.933L186.283 425.451L204.843 365.013L154.517 328.448L157.973 309.824H224.149L243.115 243.669H268.011L288.149 309.824H353.984L358.805 327.637L358.827 327.616Z" fill="#9A9A9A"/>
</svg>
