<svg width="804" height="709" viewBox="0 0 804 709" fill="none" xmlns="http://www.w3.org/2000/svg">
<path d="M77.0945 513.553L349.39 0L393.152 1.29664L393.8 160.379L205.625 514.444L77.0945 513.553Z" fill="#D93D4A"/>
<path d="M741.302 513.553L469.006 0L425.244 1.29664L424.596 160.379L612.771 514.444L741.302 513.553Z" fill="#111023"/>
<path d="M253.762 514.444L359.844 310.304L394.935 310.952V397.827L335.613 515.741L253.762 514.444Z" fill="#D93D4A"/>
<path d="M566.254 514.444L460.254 310.304L425.163 310.952V397.827L484.404 515.741L566.254 514.444Z" fill="#111023"/>
<path d="M760.706 625.311V652.094H794.503V665.92H760.706V693.238H803.587V707.598H742.673V611.018H803.587V625.311H760.706Z" fill="#111023"/>
<path d="M720.68 684.824C721.66 684.824 722.528 685.202 723.285 685.959L730.365 693.64C726.447 698.493 721.615 702.212 715.871 704.794C710.172 707.377 703.315 708.668 695.3 708.668C688.131 708.668 681.674 707.444 675.93 704.995C670.23 702.546 665.355 699.139 661.303 694.775C657.251 690.412 654.134 685.202 651.952 679.146C649.815 673.09 648.746 666.478 648.746 659.309C648.746 652.051 649.904 645.416 652.219 639.405C654.534 633.349 657.785 628.14 661.971 623.776C666.201 619.412 671.232 616.028 677.065 613.624C682.899 611.175 689.355 609.95 696.435 609.95C703.47 609.95 709.704 611.108 715.137 613.423C720.614 615.739 725.267 618.767 729.096 622.507L723.085 630.856C722.729 631.39 722.261 631.858 721.682 632.259C721.148 632.659 720.391 632.86 719.411 632.86C718.743 632.86 718.053 632.682 717.341 632.325C716.628 631.925 715.849 631.457 715.003 630.923C714.157 630.344 713.177 629.72 712.064 629.053C710.951 628.385 709.66 627.784 708.19 627.249C706.721 626.67 705.007 626.203 703.047 625.847C701.133 625.446 698.906 625.245 696.368 625.245C692.049 625.245 688.086 626.025 684.479 627.583C680.917 629.097 677.845 631.323 675.262 634.262C672.679 637.157 670.676 640.719 669.251 644.949C667.826 649.135 667.114 653.921 667.114 659.309C667.114 664.742 667.87 669.573 669.384 673.803C670.943 678.033 673.036 681.595 675.663 684.49C678.29 687.384 681.385 689.61 684.947 691.169C688.509 692.683 692.338 693.44 696.435 693.44C698.884 693.44 701.088 693.306 703.047 693.039C705.051 692.772 706.877 692.349 708.524 691.77C710.216 691.191 711.797 690.456 713.266 689.566C714.78 688.631 716.272 687.495 717.741 686.159C718.187 685.759 718.654 685.447 719.144 685.224C719.634 684.957 720.146 684.824 720.68 684.824Z" fill="#111023"/>
<path d="M615.504 671.13L603.748 639.003C603.17 637.578 602.568 635.886 601.945 633.927C601.322 631.968 600.698 629.853 600.075 627.582C599.496 629.853 598.895 631.99 598.271 633.994C597.648 635.953 597.047 637.667 596.468 639.137L584.78 671.13H615.504ZM647.23 707.598H633.337C631.779 707.598 630.51 707.22 629.53 706.463C628.55 705.661 627.816 704.682 627.326 703.524L620.112 683.82H580.104L572.891 703.524C572.534 704.548 571.844 705.483 570.82 706.329C569.796 707.175 568.527 707.598 567.013 707.598H552.987L590.991 611.018H609.292L647.23 707.598Z" fill="#111023"/>
<path d="M520.566 659.308C520.566 666.388 519.386 672.889 517.026 678.811C514.666 684.733 511.348 689.832 507.074 694.106C502.799 698.381 497.656 701.698 491.645 704.058C485.634 706.418 478.954 707.598 471.607 707.598H434.805V611.018H471.607C478.954 611.018 485.634 612.22 491.645 614.624C497.656 616.984 502.799 620.302 507.074 624.576C511.348 628.806 514.666 633.883 517.026 639.805C519.386 645.727 520.566 652.228 520.566 659.308ZM502.131 659.308C502.131 654.009 501.419 649.267 499.994 645.081C498.613 640.851 496.587 637.289 493.916 634.395C491.289 631.456 488.083 629.207 484.298 627.649C480.557 626.09 476.327 625.311 471.607 625.311H452.839V693.305H471.607C476.327 693.305 480.557 692.526 484.298 690.967C488.083 689.409 491.289 687.182 493.916 684.288C496.587 681.349 498.613 677.787 499.994 673.601C501.419 669.371 502.131 664.607 502.131 659.308Z" fill="#111023"/>
<path d="M413.297 611.018V707.598H404.08C402.655 707.598 401.453 707.375 400.473 706.93C399.538 706.44 398.625 705.639 397.735 704.526L347.307 640.139C347.574 643.078 347.708 645.794 347.708 648.287V707.598H331.878V611.018H341.296C342.053 611.018 342.699 611.062 343.233 611.151C343.812 611.196 344.302 611.329 344.702 611.552C345.148 611.73 345.571 612.019 345.971 612.42C346.372 612.776 346.817 613.266 347.307 613.89L397.935 678.544C397.802 676.985 397.69 675.449 397.601 673.935C397.512 672.421 397.468 671.019 397.468 669.727V611.018H413.297Z" fill="#111023"/>
<path d="M273.076 625.311V652.094H306.872V665.92H273.076V693.238H315.956V707.598H255.042V611.018H315.956V625.311H273.076Z" fill="#111023"/>
<path d="M242.404 625.779H213.283V707.598H195.316V625.779H166.195V611.018H242.404V625.779Z" fill="#111023"/>
<path d="M162.307 625.779H133.185V707.598H115.219V625.779H86.0974V611.018H162.307V625.779Z" fill="#111023"/>
<path d="M62.5169 671.13L50.7616 639.003C50.1827 637.578 49.5816 635.886 48.9582 633.927C48.3348 631.968 47.7114 629.853 47.088 627.582C46.5092 629.853 45.9081 631.99 45.2847 633.994C44.6613 635.953 44.0602 637.667 43.4813 639.137L31.7928 671.13H62.5169ZM94.2429 707.598H80.3502C78.7918 707.598 77.5227 707.22 76.5431 706.463C75.5635 705.661 74.8288 704.682 74.339 703.524L67.1255 683.82H27.1174L19.9039 703.524C19.5477 704.548 18.8575 705.483 17.8333 706.329C16.8092 707.175 15.5402 707.598 14.0262 707.598H0L38.0044 611.018H56.3053L94.2429 707.598Z" fill="#111023"/>
</svg>
