<svg width="512" height="512" viewBox="0 0 512 512" fill="none" xmlns="http://www.w3.org/2000/svg">
<g clip-path="url(#clip0_19_11)">
<path d="M448 42.6667H384V0H341.333V42.6667H170.667V0H128V42.6667H64C28.7147 42.6667 0 71.3813 0 106.667V512H512V106.667C512 71.3813 483.285 42.6667 448 42.6667ZM469.333 469.333H42.6667V213.333H469.333V469.333ZM469.333 170.667H42.6667V106.667C42.6667 94.912 52.224 85.3333 64 85.3333H448C459.776 85.3333 469.333 94.912 469.333 106.667V170.667ZM193.835 414.165L134.485 356.651L164.203 325.995L223.787 383.744L347.712 262.123L377.664 292.523L254.08 414.272C245.824 422.528 234.965 426.645 224.064 426.645C213.163 426.645 202.176 422.485 193.835 414.165Z" fill="#9A9A9A"/>
</g>
<defs>
<clipPath id="clip0_19_11">
<rect width="512" height="512" fill="white"/>
</clipPath>
</defs>
</svg>
